{
	"patcher" : 	{
		"fileversion" : 1,
		"appversion" : 		{
			"major" : 7,
			"minor" : 3,
			"revision" : 4,
			"architecture" : "x64",
			"modernui" : 1
		}
,
		"rect" : [ 34.0, 79.0, 1212.0, 651.0 ],
		"bglocked" : 0,
		"openinpresentation" : 0,
		"default_fontsize" : 12.0,
		"default_fontface" : 0,
		"default_fontname" : "Arial",
		"gridonopen" : 1,
		"gridsize" : [ 15.0, 15.0 ],
		"gridsnaponopen" : 1,
		"objectsnaponopen" : 1,
		"statusbarvisible" : 2,
		"toolbarvisible" : 1,
		"lefttoolbarpinned" : 0,
		"toptoolbarpinned" : 0,
		"righttoolbarpinned" : 0,
		"bottomtoolbarpinned" : 0,
		"toolbars_unpinned_last_save" : 0,
		"tallnewobj" : 0,
		"boxanimatetime" : 200,
		"enablehscroll" : 1,
		"enablevscroll" : 1,
		"devicewidth" : 0.0,
		"description" : "",
		"digest" : "",
		"tags" : "",
		"style" : "",
		"subpatcher_template" : "",
		"boxes" : [ 			{
				"box" : 				{
					"id" : "obj-281",
					"maxclass" : "attrui",
					"numinlets" : 1,
					"numoutlets" : 1,
					"outlettype" : [ "" ],
					"patching_rect" : [ 43.0, 306.666687, 150.0, 22.0 ],
					"style" : ""
				}

			}
, 			{
				"box" : 				{
					"id" : "obj-279",
					"maxclass" : "message",
					"numinlets" : 2,
					"numoutlets" : 1,
					"outlettype" : [ "" ],
					"patching_rect" : [ 710.416687, 292.666687, 50.0, 22.0 ],
					"style" : "",
					"text" : "3"
				}

			}
, 			{
				"box" : 				{
					"id" : "obj-277",
					"maxclass" : "button",
					"numinlets" : 1,
					"numoutlets" : 1,
					"outlettype" : [ "bang" ],
					"patching_rect" : [ 666.416748, 283.333313, 24.0, 24.0 ],
					"style" : ""
				}

			}
, 			{
				"box" : 				{
					"id" : "obj-275",
					"maxclass" : "message",
					"numinlets" : 2,
					"numoutlets" : 1,
					"outlettype" : [ "" ],
					"patching_rect" : [ 710.416687, 201.333328, 29.5, 22.0 ],
					"style" : "",
					"text" : "3"
				}

			}
, 			{
				"box" : 				{
					"id" : "obj-273",
					"maxclass" : "message",
					"numinlets" : 2,
					"numoutlets" : 1,
					"outlettype" : [ "" ],
					"patching_rect" : [ 661.750061, 201.333328, 29.5, 22.0 ],
					"style" : "",
					"text" : "0"
				}

			}
, 			{
				"box" : 				{
					"id" : "obj-271",
					"maxclass" : "newobj",
					"numinlets" : 2,
					"numoutlets" : 2,
					"outlettype" : [ "bang", "" ],
					"patching_rect" : [ 662.416687, 240.0, 52.0, 22.0 ],
					"style" : "",
					"text" : "select 0"
				}

			}
, 			{
				"box" : 				{
					"attr" : "rows",
					"id" : "obj-270",
					"maxclass" : "attrui",
					"numinlets" : 1,
					"numoutlets" : 1,
					"outlettype" : [ "" ],
					"patching_rect" : [ 84.666672, 240.0, 116.666664, 22.0 ],
					"style" : "",
					"text_width" : 78.0
				}

			}
, 			{
				"box" : 				{
					"attr" : "columns",
					"id" : "obj-268",
					"maxclass" : "attrui",
					"numinlets" : 1,
					"numoutlets" : 1,
					"outlettype" : [ "" ],
					"patching_rect" : [ 84.666672, 208.0, 116.666664, 22.0 ],
					"style" : "",
					"text_width" : 81.333333
				}

			}
, 			{
				"box" : 				{
					"id" : "obj-266",
					"maxclass" : "message",
					"numinlets" : 2,
					"numoutlets" : 1,
					"outlettype" : [ "" ],
					"patching_rect" : [ 610.000018, 141.333338, 50.0, 22.0 ],
					"style" : "",
					"text" : "2"
				}

			}
, 			{
				"box" : 				{
					"id" : "obj-264",
					"maxclass" : "message",
					"numinlets" : 2,
					"numoutlets" : 1,
					"outlettype" : [ "" ],
					"patching_rect" : [ 958.0, 44.666672, 29.5, 22.0 ],
					"presentation_rect" : [ 958.0, 44.666672, 0.0, 0.0 ],
					"style" : "",
					"text" : "4"
				}

			}
, 			{
				"box" : 				{
					"id" : "obj-263",
					"maxclass" : "message",
					"numinlets" : 2,
					"numoutlets" : 1,
					"outlettype" : [ "" ],
					"patching_rect" : [ 920.666687, 44.666672, 29.5, 22.0 ],
					"presentation_rect" : [ 920.666687, 44.666672, 0.0, 0.0 ],
					"style" : "",
					"text" : "0"
				}

			}
, 			{
				"box" : 				{
					"id" : "obj-262",
					"maxclass" : "message",
					"numinlets" : 2,
					"numoutlets" : 1,
					"outlettype" : [ "" ],
					"patching_rect" : [ 885.333374, 44.666672, 29.5, 22.0 ],
					"style" : "",
					"text" : "0"
				}

			}
, 			{
				"box" : 				{
					"id" : "obj-260",
					"maxclass" : "message",
					"numinlets" : 2,
					"numoutlets" : 1,
					"outlettype" : [ "" ],
					"patching_rect" : [ 848.666687, 45.333336, 29.5, 22.0 ],
					"style" : "",
					"text" : "0"
				}

			}
, 			{
				"box" : 				{
					"id" : "obj-247",
					"maxclass" : "message",
					"numinlets" : 2,
					"numoutlets" : 1,
					"outlettype" : [ "" ],
					"patching_rect" : [ 828.666687, 115.333336, 29.5, 22.0 ],
					"style" : "",
					"text" : "1"
				}

			}
, 			{
				"box" : 				{
					"id" : "obj-245",
					"maxclass" : "message",
					"numinlets" : 2,
					"numoutlets" : 1,
					"outlettype" : [ "" ],
					"patching_rect" : [ 730.0, 115.333336, 29.5, 22.0 ],
					"style" : "",
					"text" : "4"
				}

			}
, 			{
				"box" : 				{
					"id" : "obj-243",
					"maxclass" : "newobj",
					"numinlets" : 1,
					"numoutlets" : 2,
					"outlettype" : [ "int", "int" ],
					"patching_rect" : [ 730.0, 84.0, 61.0, 22.0 ],
					"style" : "",
					"text" : "unpack i i"
				}

			}
, 			{
				"box" : 				{
					"id" : "obj-242",
					"maxclass" : "newobj",
					"numinlets" : 1,
					"numoutlets" : 2,
					"outlettype" : [ "", "" ],
					"patching_rect" : [ 1198.666626, 113.333336, 29.5, 22.0 ],
					"style" : "",
					"text" : "t"
				}

			}
, 			{
				"box" : 				{
					"id" : "obj-239",
					"maxclass" : "newobj",
					"numinlets" : 2,
					"numoutlets" : 1,
					"outlettype" : [ "" ],
					"patching_rect" : [ 1104.333374, 154.0, 54.0, 22.0 ],
					"style" : "",
					"text" : "gate 1 1"
				}

			}
, 			{
				"box" : 				{
					"id" : "obj-238",
					"maxclass" : "toggle",
					"numinlets" : 1,
					"numoutlets" : 1,
					"outlettype" : [ "int" ],
					"parameter_enable" : 0,
					"patching_rect" : [ 1147.333374, 113.333336, 24.0, 24.0 ],
					"style" : ""
				}

			}
, 			{
				"box" : 				{
					"id" : "obj-235",
					"maxclass" : "newobj",
					"numinlets" : 1,
					"numoutlets" : 2,
					"outlettype" : [ "int", "int" ],
					"patching_rect" : [ 1097.333374, 66.666672, 61.0, 22.0 ],
					"style" : "",
					"text" : "unpack i i"
				}

			}
, 			{
				"box" : 				{
					"id" : "obj-234",
					"maxclass" : "message",
					"numinlets" : 2,
					"numoutlets" : 1,
					"outlettype" : [ "" ],
					"patching_rect" : [ 758.333313, 45.333336, 29.5, 22.0 ],
					"presentation_rect" : [ 804.333313, 44.666672, 0.0, 0.0 ],
					"style" : "",
					"text" : "4 0"
				}

			}
, 			{
				"box" : 				{
					"id" : "obj-233",
					"maxclass" : "message",
					"numinlets" : 2,
					"numoutlets" : 1,
					"outlettype" : [ "" ],
					"patching_rect" : [ 715.0, 45.333336, 29.5, 22.0 ],
					"presentation_rect" : [ 757.0, 44.666672, 0.0, 0.0 ],
					"style" : "",
					"text" : "3 0"
				}

			}
, 			{
				"box" : 				{
					"id" : "obj-232",
					"maxclass" : "message",
					"numinlets" : 2,
					"numoutlets" : 1,
					"outlettype" : [ "" ],
					"patching_rect" : [ 673.666687, 45.333336, 29.5, 22.0 ],
					"presentation_rect" : [ 703.333313, 44.666672, 0.0, 0.0 ],
					"style" : "",
					"text" : "2 0"
				}

			}
, 			{
				"box" : 				{
					"id" : "obj-231",
					"maxclass" : "message",
					"numinlets" : 2,
					"numoutlets" : 1,
					"outlettype" : [ "" ],
					"patching_rect" : [ 637.333313, 45.333336, 29.5, 22.0 ],
					"style" : "",
					"text" : "1 1"
				}

			}
, 			{
				"box" : 				{
					"id" : "obj-229",
					"maxclass" : "newobj",
					"numinlets" : 2,
					"numoutlets" : 2,
					"outlettype" : [ "bang", "" ],
					"patching_rect" : [ 542.0, 138.666672, 52.0, 22.0 ],
					"style" : "",
					"text" : "select 0"
				}

			}
, 			{
				"box" : 				{
					"id" : "obj-228",
					"maxclass" : "newobj",
					"numinlets" : 2,
					"numoutlets" : 1,
					"outlettype" : [ "int" ],
					"patching_rect" : [ 542.0, 87.333336, 29.5, 22.0 ],
					"style" : "",
					"text" : "*"
				}

			}
, 			{
				"box" : 				{
					"id" : "obj-221",
					"maxclass" : "newobj",
					"numinlets" : 1,
					"numoutlets" : 1,
					"outlettype" : [ "list" ],
					"patching_rect" : [ 542.0, 44.666672, 68.0, 22.0 ],
					"style" : "",
					"text" : "listfunnel 1"
				}

			}
, 			{
				"box" : 				{
					"id" : "obj-220",
					"maxclass" : "message",
					"numinlets" : 2,
					"numoutlets" : 1,
					"outlettype" : [ "" ],
					"patching_rect" : [ 703.0, 11.333334, 29.5, 22.0 ],
					"style" : "",
					"text" : "4"
				}

			}
, 			{
				"box" : 				{
					"id" : "obj-218",
					"maxclass" : "comment",
					"numinlets" : 1,
					"numoutlets" : 0,
					"patching_rect" : [ 669.666687, 11.333334, 22.666662, 20.0 ],
					"style" : "",
					"text" : "->"
				}

			}
, 			{
				"box" : 				{
					"id" : "obj-216",
					"maxclass" : "message",
					"numinlets" : 2,
					"numoutlets" : 1,
					"outlettype" : [ "" ],
					"patching_rect" : [ 542.0, 11.333334, 47.0, 22.0 ],
					"style" : "",
					"text" : "1 0 0 0"
				}

			}
, 			{
				"box" : 				{
					"id" : "obj-212",
					"maxclass" : "ezdac~",
					"numinlets" : 2,
					"numoutlets" : 0,
					"patching_rect" : [ 542.0, 374.0, 45.0, 45.0 ],
					"style" : ""
				}

			}
, 			{
				"box" : 				{
					"id" : "obj-211",
					"maxclass" : "message",
					"numinlets" : 2,
					"numoutlets" : 1,
					"outlettype" : [ "" ],
					"patching_rect" : [ 164.000015, 336.666687, 179.333344, 22.0 ],
					"style" : "",
					"text" : "0 1 0 0 0 0 0 0"
				}

			}
, 			{
				"box" : 				{
					"id" : "obj-209",
					"maxclass" : "message",
					"numinlets" : 2,
					"numoutlets" : 1,
					"outlettype" : [ "" ],
					"patching_rect" : [ 110.0, 160.666672, 83.0, 22.0 ],
					"style" : "",
					"text" : "getcolumn $1"
				}

			}
, 			{
				"box" : 				{
					"id" : "obj-207",
					"maxclass" : "number",
					"numinlets" : 1,
					"numoutlets" : 2,
					"outlettype" : [ "", "bang" ],
					"parameter_enable" : 0,
					"patching_rect" : [ 110.0, 130.0, 50.0, 22.0 ],
					"style" : ""
				}

			}
, 			{
				"box" : 				{
					"id" : "obj-201",
					"maxclass" : "comment",
					"numinlets" : 1,
					"numoutlets" : 0,
					"patching_rect" : [ 353.333344, 109.333336, 150.0, 20.0 ],
					"style" : "",
					"text" : "press a to make an attrui"
				}

			}
, 			{
				"box" : 				{
					"id" : "obj-199",
					"maxclass" : "comment",
					"numinlets" : 1,
					"numoutlets" : 0,
					"patching_rect" : [ 413.333374, 169.333344, 49.333313, 20.0 ],
					"style" : "",
					"text" : "attrui"
				}

			}
, 			{
				"box" : 				{
					"attr" : "one/column",
					"id" : "obj-197",
					"maxclass" : "attrui",
					"numinlets" : 1,
					"numoutlets" : 1,
					"outlettype" : [ "" ],
					"patching_rect" : [ 312.666687, 138.666672, 150.0, 22.0 ],
					"style" : ""
				}

			}
, 			{
				"box" : 				{
					"id" : "obj-195",
					"maxclass" : "comment",
					"numinlets" : 1,
					"numoutlets" : 0,
					"patching_rect" : [ 232.0, 281.333344, 130.0, 20.0 ],
					"style" : "",
					"text" : "matrixctrl"
				}

			}
, 			{
				"box" : 				{
					"columns" : 10,
					"id" : "obj-193",
					"maxclass" : "matrixctrl",
					"numinlets" : 1,
					"numoutlets" : 2,
					"one/column" : 1,
					"outlettype" : [ "list", "list" ],
					"parameter_enable" : 0,
					"patching_rect" : [ 213.333359, 210.0, 130.0, 66.0 ],
					"rows" : 8,
					"style" : ""
				}

			}
, 			{
				"box" : 				{
					"id" : "obj-185",
					"maxclass" : "newobj",
					"numinlets" : 5,
					"numoutlets" : 4,
					"outlettype" : [ "int", "", "", "int" ],
					"patching_rect" : [ 110.0, 94.0, 61.0, 22.0 ],
					"style" : "",
					"text" : "counter 9"
				}

			}
, 			{
				"box" : 				{
					"id" : "obj-184",
					"maxclass" : "toggle",
					"numinlets" : 1,
					"numoutlets" : 1,
					"outlettype" : [ "int" ],
					"parameter_enable" : 0,
					"patching_rect" : [ 110.000003, 22.000001, 24.0, 24.0 ],
					"style" : ""
				}

			}
, 			{
				"box" : 				{
					"id" : "obj-182",
					"maxclass" : "newobj",
					"numinlets" : 2,
					"numoutlets" : 1,
					"outlettype" : [ "bang" ],
					"patching_rect" : [ 110.0, 58.0, 65.0, 22.0 ],
					"style" : "",
					"text" : "metro 250"
				}

			}
, 			{
				"box" : 				{
					"clipheight" : 20.0,
					"data" : 					{
						"clips" : [ 							{
								"filename" : "/Users/samtarakajian/Documents/Max 7/Packages/ircampack/media/archer_et_all/grape-ballistix.wav",
								"filekind" : "audiofile",
								"selection" : [ 0.712375, 0.782609 ],
								"loop" : 0,
								"content_state" : 								{
									"basictuning" : [ 440 ],
									"pitchshift" : [ 1.0 ],
									"slurtime" : [ 0.0 ],
									"formantcorrection" : [ 0 ],
									"speed" : [ 1.0 ],
									"quality" : [ "basic" ],
									"originallengthms" : [ 0.0 ],
									"originaltempo" : [ 120.0 ],
									"followglobaltempo" : [ 0 ],
									"timestretch" : [ 0 ],
									"pitchcorrection" : [ 0 ],
									"formant" : [ 1.0 ],
									"originallength" : [ 0.0, "ticks" ],
									"mode" : [ "basic" ],
									"play" : [ 0 ]
								}

							}
, 							{
								"filename" : "/Users/samtarakajian/Documents/Max 7/Packages/ircampack/media/archer_et_all/danger-zone-clip.wav",
								"filekind" : "audiofile",
								"loop" : 0,
								"content_state" : 								{
									"basictuning" : [ 440 ],
									"pitchshift" : [ 1.0 ],
									"slurtime" : [ 0.0 ],
									"formantcorrection" : [ 0 ],
									"speed" : [ 1.0 ],
									"quality" : [ "basic" ],
									"originallengthms" : [ 0.0 ],
									"originaltempo" : [ 120.0 ],
									"followglobaltempo" : [ 0 ],
									"timestretch" : [ 0 ],
									"pitchcorrection" : [ 0 ],
									"formant" : [ 1.0 ],
									"originallength" : [ 0.0, "ticks" ],
									"mode" : [ "basic" ],
									"play" : [ 0 ]
								}

							}
, 							{
								"filename" : "Clap-1oct.wav",
								"filekind" : "audiofile",
								"loop" : 0,
								"content_state" : 								{
									"basictuning" : [ 440 ],
									"pitchshift" : [ 1.0 ],
									"slurtime" : [ 0.0 ],
									"formantcorrection" : [ 0 ],
									"speed" : [ 1.0 ],
									"quality" : [ "basic" ],
									"originallengthms" : [ 0.0 ],
									"originaltempo" : [ 120.0 ],
									"followglobaltempo" : [ 0 ],
									"timestretch" : [ 0 ],
									"pitchcorrection" : [ 0 ],
									"formant" : [ 1.0 ],
									"originallength" : [ 0.0, "ticks" ],
									"mode" : [ "basic" ],
									"play" : [ 0 ]
								}

							}
, 							{
								"filename" : "Cowbell.wav",
								"filekind" : "audiofile",
								"loop" : 0,
								"content_state" : 								{
									"basictuning" : [ 440 ],
									"pitchshift" : [ 1.0 ],
									"slurtime" : [ 0.0 ],
									"formantcorrection" : [ 0 ],
									"speed" : [ 1.0 ],
									"quality" : [ "basic" ],
									"originallengthms" : [ 0.0 ],
									"originaltempo" : [ 120.0 ],
									"followglobaltempo" : [ 0 ],
									"timestretch" : [ 0 ],
									"pitchcorrection" : [ 0 ],
									"formant" : [ 1.0 ],
									"originallength" : [ 0.0, "ticks" ],
									"mode" : [ "basic" ],
									"play" : [ 0 ]
								}

							}
, 							{
								"filename" : "HiConga.wav",
								"filekind" : "audiofile",
								"loop" : 0,
								"content_state" : 								{
									"basictuning" : [ 440 ],
									"pitchshift" : [ 1.0 ],
									"slurtime" : [ 0.0 ],
									"formantcorrection" : [ 0 ],
									"speed" : [ 1.0 ],
									"quality" : [ "basic" ],
									"originallengthms" : [ 0.0 ],
									"originaltempo" : [ 120.0 ],
									"followglobaltempo" : [ 0 ],
									"timestretch" : [ 0 ],
									"pitchcorrection" : [ 0 ],
									"formant" : [ 1.0 ],
									"originallength" : [ 0.0, "ticks" ],
									"mode" : [ "basic" ],
									"play" : [ 0 ]
								}

							}
, 							{
								"filename" : "Kick.wav",
								"filekind" : "audiofile",
								"loop" : 0,
								"content_state" : 								{
									"basictuning" : [ 440 ],
									"pitchshift" : [ 1.0 ],
									"slurtime" : [ 0.0 ],
									"formantcorrection" : [ 0 ],
									"speed" : [ 1.0 ],
									"quality" : [ "basic" ],
									"originallengthms" : [ 0.0 ],
									"originaltempo" : [ 120.0 ],
									"followglobaltempo" : [ 0 ],
									"timestretch" : [ 0 ],
									"pitchcorrection" : [ 0 ],
									"formant" : [ 1.0 ],
									"originallength" : [ 0.0, "ticks" ],
									"mode" : [ "basic" ],
									"play" : [ 0 ]
								}

							}
, 							{
								"filename" : "LoTom.wav",
								"filekind" : "audiofile",
								"loop" : 0,
								"content_state" : 								{
									"basictuning" : [ 440 ],
									"pitchshift" : [ 1.0 ],
									"slurtime" : [ 0.0 ],
									"formantcorrection" : [ 0 ],
									"speed" : [ 1.0 ],
									"quality" : [ "basic" ],
									"originallengthms" : [ 0.0 ],
									"originaltempo" : [ 120.0 ],
									"followglobaltempo" : [ 0 ],
									"timestretch" : [ 0 ],
									"pitchcorrection" : [ 0 ],
									"formant" : [ 1.0 ],
									"originallength" : [ 0.0, "ticks" ],
									"mode" : [ "basic" ],
									"play" : [ 0 ]
								}

							}
, 							{
								"filename" : "OPhat.wav",
								"filekind" : "audiofile",
								"loop" : 0,
								"content_state" : 								{
									"basictuning" : [ 440 ],
									"pitchshift" : [ 1.0 ],
									"slurtime" : [ 0.0 ],
									"formantcorrection" : [ 0 ],
									"speed" : [ 1.0 ],
									"quality" : [ "basic" ],
									"originallengthms" : [ 0.0 ],
									"originaltempo" : [ 120.0 ],
									"followglobaltempo" : [ 0 ],
									"timestretch" : [ 0 ],
									"pitchcorrection" : [ 0 ],
									"formant" : [ 1.0 ],
									"originallength" : [ 0.0, "ticks" ],
									"mode" : [ "basic" ],
									"play" : [ 0 ]
								}

							}
 ]
					}
,
					"id" : "obj-177",
					"maxclass" : "playlist~",
					"numinlets" : 1,
					"numoutlets" : 5,
					"outlettype" : [ "signal", "signal", "signal", "", "dictionary" ],
					"patching_rect" : [ 458.0, 181.333344, 188.833328, 158.0 ],
					"style" : ""
				}

			}
 ],
		"lines" : [ 			{
				"patchline" : 				{
					"destination" : [ "obj-212", 1 ],
					"source" : [ "obj-177", 1 ]
				}

			}
, 			{
				"patchline" : 				{
					"destination" : [ "obj-212", 0 ],
					"source" : [ "obj-177", 0 ]
				}

			}
, 			{
				"patchline" : 				{
					"destination" : [ "obj-185", 0 ],
					"source" : [ "obj-182", 0 ]
				}

			}
, 			{
				"patchline" : 				{
					"destination" : [ "obj-182", 0 ],
					"source" : [ "obj-184", 0 ]
				}

			}
, 			{
				"patchline" : 				{
					"destination" : [ "obj-207", 0 ],
					"source" : [ "obj-185", 0 ]
				}

			}
, 			{
				"patchline" : 				{
					"destination" : [ "obj-211", 1 ],
					"order" : 1,
					"source" : [ "obj-193", 1 ]
				}

			}
, 			{
				"patchline" : 				{
					"destination" : [ "obj-221", 0 ],
					"order" : 0,
					"source" : [ "obj-193", 1 ]
				}

			}
, 			{
				"patchline" : 				{
					"destination" : [ "obj-193", 0 ],
					"source" : [ "obj-197", 0 ]
				}

			}
, 			{
				"patchline" : 				{
					"destination" : [ "obj-209", 0 ],
					"source" : [ "obj-207", 0 ]
				}

			}
, 			{
				"patchline" : 				{
					"destination" : [ "obj-193", 0 ],
					"source" : [ "obj-209", 0 ]
				}

			}
, 			{
				"patchline" : 				{
					"destination" : [ "obj-221", 0 ],
					"source" : [ "obj-216", 0 ]
				}

			}
, 			{
				"patchline" : 				{
					"destination" : [ "obj-228", 0 ],
					"source" : [ "obj-221", 0 ]
				}

			}
, 			{
				"patchline" : 				{
					"destination" : [ "obj-229", 0 ],
					"source" : [ "obj-228", 0 ]
				}

			}
, 			{
				"patchline" : 				{
					"destination" : [ "obj-177", 0 ],
					"order" : 1,
					"source" : [ "obj-229", 1 ]
				}

			}
, 			{
				"patchline" : 				{
					"destination" : [ "obj-266", 1 ],
					"order" : 0,
					"source" : [ "obj-229", 1 ]
				}

			}
, 			{
				"patchline" : 				{
					"destination" : [ "obj-245", 0 ],
					"source" : [ "obj-243", 0 ]
				}

			}
, 			{
				"patchline" : 				{
					"destination" : [ "obj-247", 0 ],
					"source" : [ "obj-243", 1 ]
				}

			}
, 			{
				"patchline" : 				{
					"destination" : [ "obj-193", 0 ],
					"source" : [ "obj-268", 0 ]
				}

			}
, 			{
				"patchline" : 				{
					"destination" : [ "obj-193", 0 ],
					"source" : [ "obj-270", 0 ]
				}

			}
, 			{
				"patchline" : 				{
					"destination" : [ "obj-277", 0 ],
					"source" : [ "obj-271", 0 ]
				}

			}
, 			{
				"patchline" : 				{
					"destination" : [ "obj-279", 1 ],
					"source" : [ "obj-271", 1 ]
				}

			}
, 			{
				"patchline" : 				{
					"destination" : [ "obj-271", 0 ],
					"source" : [ "obj-273", 0 ]
				}

			}
, 			{
				"patchline" : 				{
					"destination" : [ "obj-271", 0 ],
					"source" : [ "obj-275", 0 ]
				}

			}
, 			{
				"patchline" : 				{
					"destination" : [ "obj-193", 0 ],
					"source" : [ "obj-281", 0 ]
				}

			}
 ],
		"dependency_cache" : [ 			{
				"name" : "grape-ballistix.wav",
				"bootpath" : "~/Documents/Max 7/Packages/ircampack/media/archer_et_all",
				"patcherrelativepath" : "../media/archer_et_all",
				"type" : "WAVE",
				"implicit" : 1
			}
, 			{
				"name" : "danger-zone-clip.wav",
				"bootpath" : "~/Documents/Max 7/Packages/ircampack/media/archer_et_all",
				"patcherrelativepath" : "../media/archer_et_all",
				"type" : "WAVE",
				"implicit" : 1
			}
, 			{
				"name" : "Clap-1oct.wav",
				"bootpath" : "~/Documents/Max 7/Packages/ircampack/media/purpledrums",
				"patcherrelativepath" : "../media/purpledrums",
				"type" : "WAVE",
				"implicit" : 1
			}
, 			{
				"name" : "Cowbell.wav",
				"bootpath" : "~/Documents/Max 7/Packages/ircampack/media/purpledrums",
				"patcherrelativepath" : "../media/purpledrums",
				"type" : "WAVE",
				"implicit" : 1
			}
, 			{
				"name" : "HiConga.wav",
				"bootpath" : "~/Documents/Max 7/Packages/ircampack/media/purpledrums",
				"patcherrelativepath" : "../media/purpledrums",
				"type" : "WAVE",
				"implicit" : 1
			}
, 			{
				"name" : "Kick.wav",
				"bootpath" : "~/Documents/Max 7/Packages/ircampack/media/purpledrums",
				"patcherrelativepath" : "../media/purpledrums",
				"type" : "WAVE",
				"implicit" : 1
			}
, 			{
				"name" : "LoTom.wav",
				"bootpath" : "~/Documents/Max 7/Packages/ircampack/media/purpledrums",
				"patcherrelativepath" : "../media/purpledrums",
				"type" : "WAVE",
				"implicit" : 1
			}
, 			{
				"name" : "OPhat.wav",
				"bootpath" : "~/Documents/Max 7/Packages/ircampack/media/purpledrums",
				"patcherrelativepath" : "../media/purpledrums",
				"type" : "WAVE",
				"implicit" : 1
			}
 ],
		"autosave" : 0
	}

}
